<?xml version="1.0" standalone="no"?>
<!DOCTYPE svg PUBLIC "-//W3C//DTD SVG 20010904//EN"
 "http://www.w3.org/TR/2001/REC-SVG-20010904/DTD/svg10.dtd">
<svg version="1.0" xmlns="http://www.w3.org/2000/svg"
 width="1080.000000pt" height="1080.000000pt" viewBox="0 0 1080.000000 1080.000000"
 preserveAspectRatio="xMidYMid meet">
<metadata>
Created by potrace 1.14, written by Peter Selinger 2001-2017
</metadata>
<g transform="translate(0.000000,1080.000000) scale(0.100000,-0.100000)"
fill="#000000" stroke="none">
<path d="M5241 10199 c-1 -12 -11 -15 -41 -14 -22 1 -40 -1 -40 -6 0 -4 -29
-6 -65 -5 -36 2 -65 -1 -65 -5 0 -4 -24 -7 -52 -8 -81 -2 -133 -7 -146 -14 -6
-4 -23 -7 -39 -7 -60 0 -98 -5 -105 -14 -3 -6 -20 -11 -37 -12 -16 -1 -34 -5
-40 -8 -5 -4 -13 -1 -16 4 -5 8 -12 7 -23 -3 -10 -8 -39 -18 -67 -22 -27 -4
-120 -23 -205 -43 -85 -19 -167 -35 -183 -35 -15 0 -25 -2 -22 -5 6 -7 -63
-32 -88 -32 -10 0 -16 -4 -13 -9 9 -14 -50 -31 -116 -34 -9 -1 -14 -5 -12 -9
5 -8 -11 -12 -30 -9 -5 1 -16 -5 -26 -14 -9 -8 -20 -12 -23 -8 -4 3 -7 1 -7
-6 0 -8 -8 -11 -20 -8 -11 3 -20 1 -20 -5 0 -5 -4 -6 -10 -3 -5 3 -10 2 -10
-2 0 -5 -11 -10 -25 -11 -14 -1 -37 -9 -50 -18 -14 -9 -25 -14 -25 -10 0 3
-17 -6 -37 -20 -20 -13 -43 -22 -50 -19 -8 2 -12 1 -9 -4 3 -5 -6 -12 -22 -15
-27 -7 -204 -87 -232 -106 -8 -5 -32 -17 -52 -26 -21 -9 -38 -20 -38 -26 0 -5
-4 -6 -10 -3 -5 3 -10 1 -10 -5 0 -6 -4 -8 -10 -5 -5 3 -10 1 -10 -6 0 -7 -3
-9 -6 -6 -4 4 -19 -2 -34 -13 -16 -11 -33 -20 -39 -20 -6 0 -11 -5 -11 -11 0
-5 -4 -7 -10 -4 -5 3 -10 2 -10 -2 0 -11 -99 -69 -111 -65 -5 1 -9 -2 -9 -8 0
-5 -13 -16 -30 -25 -16 -9 -30 -13 -30 -11 0 3 -12 -6 -26 -19 -15 -14 -33
-25 -41 -25 -7 0 -16 -7 -19 -15 -3 -8 -14 -17 -25 -20 -10 -4 -26 -13 -35
-22 -13 -14 -17 -14 -25 -2 -8 11 -9 10 -7 -5 2 -13 -6 -22 -28 -30 -19 -7
-29 -16 -26 -25 3 -8 0 -11 -7 -7 -6 4 -11 2 -11 -3 0 -6 -3 -10 -7 -9 -5 1
-22 -11 -39 -27 -61 -59 -99 -86 -117 -81 -9 2 -14 0 -11 -5 6 -11 -35 -48
-54 -49 -6 0 -11 -6 -10 -12 2 -7 -4 -11 -12 -10 -8 2 -12 0 -7 -4 9 -9 -21
-44 -39 -44 -7 0 -14 -4 -16 -9 -1 -5 -10 -11 -18 -13 -19 -4 -39 -21 -34 -30
2 -4 -5 -9 -16 -13 -11 -3 -20 -14 -20 -24 0 -9 -14 -25 -31 -35 -16 -10 -44
-31 -60 -47 -16 -16 -34 -29 -39 -29 -5 0 -12 -10 -16 -22 -9 -31 -36 -56 -54
-50 -8 3 -12 1 -7 -3 9 -11 -42 -65 -60 -65 -8 0 -12 -4 -8 -9 3 -5 -1 -15 -8
-23 -7 -7 -14 -17 -15 -23 -1 -5 -8 -10 -14 -10 -7 0 -17 -6 -21 -13 -5 -7
-14 -9 -20 -5 -7 4 -5 -2 3 -12 9 -11 10 -16 3 -11 -8 4 -13 2 -13 -4 0 -6 -4
-8 -10 -5 -5 3 -11 1 -11 -4 -3 -22 -5 -27 -20 -48 -9 -13 -19 -20 -22 -16 -4
3 -7 -1 -7 -10 0 -19 -62 -87 -80 -87 -6 0 -9 -4 -6 -9 3 -4 -3 -16 -14 -26
-11 -10 -17 -22 -14 -26 8 -13 -10 -11 -26 4 -12 10 -12 9 -1 -5 10 -13 10
-20 -1 -37 -7 -11 -19 -22 -28 -23 -8 -2 -15 -12 -15 -23 0 -11 -6 -19 -12
-18 -7 2 -13 -1 -13 -6 0 -20 -82 -131 -92 -125 -6 4 -8 2 -4 -4 8 -13 -28
-78 -63 -112 -14 -14 -27 -32 -29 -40 -2 -8 -9 -18 -15 -22 -7 -4 -7 -8 -2 -8
6 0 2 -5 -7 -11 -10 -5 -18 -16 -18 -24 0 -23 -22 -65 -31 -59 -5 3 -9 -2 -9
-10 0 -9 0 -18 0 -21 0 -2 -11 -16 -25 -29 -13 -13 -27 -36 -31 -50 -3 -14
-10 -26 -15 -26 -5 0 -9 -6 -9 -13 0 -7 -11 -29 -25 -50 -14 -20 -24 -41 -21
-46 3 -4 -6 -24 -19 -43 -13 -20 -32 -54 -40 -76 -9 -22 -23 -43 -31 -46 -9
-3 -13 -10 -9 -16 3 -5 -4 -29 -17 -52 -12 -24 -23 -50 -25 -58 -1 -9 -10 -34
-19 -55 -10 -22 -17 -43 -16 -47 1 -5 -3 -8 -9 -8 -5 0 -7 -5 -4 -10 3 -6 -1
-13 -10 -16 -9 -4 -14 -13 -11 -20 3 -8 1 -14 -5 -14 -6 0 -8 -4 -4 -9 3 -5 1
-12 -5 -16 -6 -4 -8 -11 -5 -16 4 -5 1 -9 -4 -9 -6 0 -11 -6 -11 -14 0 -17
-87 -289 -106 -333 -8 -17 -26 -83 -40 -145 -14 -62 -28 -120 -31 -128 -3 -8
-7 -31 -9 -50 -2 -19 -7 -36 -12 -38 -5 -1 -7 -14 -4 -27 2 -14 0 -25 -5 -25
-5 0 -8 -12 -7 -27 1 -16 -1 -32 -4 -37 -4 -8 -12 -64 -15 -103 0 -7 -4 -13
-8 -13 -4 0 -6 -12 -3 -26 3 -14 -1 -33 -7 -41 -7 -8 -14 -33 -16 -56 -7 -84
-11 -122 -13 -124 -1 -2 -3 -16 -4 -31 0 -16 -7 -37 -15 -46 -8 -9 -10 -16 -5
-14 8 3 16 -7 13 -14 -10 -25 -14 -714 -5 -828 9 -108 15 -162 21 -220 3 -30
7 -68 9 -85 1 -16 7 -40 14 -51 6 -12 9 -31 7 -43 -2 -11 0 -21 5 -21 4 0 7
-16 6 -35 -1 -19 2 -35 5 -35 4 0 6 -11 4 -25 -1 -14 1 -25 4 -25 4 0 8 -10 9
-22 0 -13 4 -36 7 -53 4 -16 8 -39 9 -50 1 -11 8 -36 15 -56 6 -20 13 -52 15
-70 2 -19 9 -47 15 -62 6 -16 11 -36 11 -44 0 -32 33 -133 41 -127 5 3 9 -5 9
-17 0 -24 66 -243 83 -274 6 -11 12 -29 14 -39 2 -11 7 -24 12 -30 4 -6 7 -21
6 -33 -1 -14 5 -25 17 -29 10 -3 16 -10 13 -15 -4 -5 -1 -9 5 -9 6 0 8 -4 5
-10 -3 -5 -1 -10 5 -10 6 0 10 -6 9 -12 -4 -22 13 -68 24 -68 6 0 7 -3 4 -7
-4 -3 -2 -12 4 -20 6 -7 9 -13 5 -13 -4 0 3 -18 14 -40 11 -23 18 -46 14 -53
-4 -7 -4 -9 0 -5 14 12 180 -317 169 -335 -3 -5 -1 -7 5 -3 12 7 44 -30 62
-74 7 -16 17 -30 22 -30 5 0 6 -4 3 -10 -3 -5 -1 -10 5 -10 6 0 8 -4 5 -10 -3
-5 -2 -10 3 -10 4 0 19 -19 32 -43 13 -23 26 -44 29 -47 10 -9 50 -67 70 -104
14 -25 17 -36 8 -40 -7 -3 -6 -5 3 -5 18 -1 42 -27 63 -68 9 -15 19 -27 24
-25 4 1 8 -3 8 -9 0 -6 15 -27 33 -47 18 -19 31 -41 28 -48 -3 -8 -1 -14 4
-14 15 0 87 -80 82 -92 -1 -5 3 -7 9 -6 6 2 14 -3 17 -11 3 -9 0 -11 -8 -6 -9
5 -11 4 -6 -4 4 -6 11 -9 15 -6 9 5 77 -86 74 -97 -2 -4 3 -5 11 -2 7 3 19 -2
26 -11 10 -12 10 -18 0 -30 -9 -10 -9 -15 -1 -15 6 0 11 5 11 10 0 6 8 5 20
-2 11 -7 20 -21 20 -30 0 -10 6 -18 13 -18 7 0 20 -9 30 -20 9 -11 14 -20 11
-20 -4 0 -1 -6 5 -13 6 -8 8 -17 4 -21 -4 -4 1 -4 10 0 20 7 60 -23 50 -39 -3
-5 -1 -7 4 -4 12 7 46 -26 38 -36 -3 -4 -2 -5 1 -3 3 2 19 -9 36 -26 24 -23
29 -34 23 -56 -6 -26 -6 -26 13 -9 19 17 20 17 40 -8 14 -17 26 -24 34 -19 9
6 9 3 -1 -9 -12 -15 -12 -17 3 -11 12 5 15 2 10 -10 -5 -14 0 -18 22 -15 3 0
15 -11 27 -24 12 -13 30 -27 40 -30 9 -4 17 -14 17 -22 0 -9 5 -13 11 -9 6 4
23 -5 38 -19 62 -60 93 -87 99 -87 11 0 62 -50 62 -60 0 -5 7 -6 17 -3 12 5
14 3 8 -7 -6 -10 -3 -12 13 -8 16 4 22 0 26 -19 4 -13 11 -21 15 -18 5 3 22
-5 38 -18 15 -13 38 -29 51 -36 13 -7 20 -17 16 -23 -5 -7 -2 -9 9 -5 9 3 19
2 22 -4 4 -5 11 -7 16 -4 5 4 9 1 9 -4 0 -6 7 -11 15 -11 8 0 15 -4 15 -10 0
-5 5 -10 10 -10 5 0 19 -9 30 -20 11 -11 27 -20 35 -20 8 0 15 -4 15 -9 0 -5
9 -13 20 -16 11 -4 18 -10 16 -14 -3 -4 0 -13 5 -21 8 -13 10 -13 19 0 5 8 10
10 10 5 0 -6 20 -17 45 -24 24 -7 56 -24 70 -38 14 -14 25 -22 25 -18 0 5 11
-2 25 -15 14 -13 25 -20 25 -16 0 4 14 -2 30 -14 17 -12 30 -18 30 -14 0 3 7
1 15 -6 12 -10 13 -16 3 -29 -10 -13 -10 -14 2 -3 17 15 50 16 50 1 0 -5 4 -8
9 -4 5 3 12 1 16 -5 4 -6 10 -8 14 -6 4 3 19 -5 32 -17 13 -12 26 -22 29 -22
3 -1 19 -9 37 -18 18 -9 39 -17 48 -17 9 0 26 -6 38 -14 12 -8 62 -28 112 -46
49 -17 97 -38 106 -46 8 -7 23 -14 32 -14 9 0 40 -11 69 -23 29 -13 59 -22 67
-19 8 3 11 0 7 -6 -4 -7 5 -10 23 -10 17 1 36 -4 43 -9 13 -10 86 -28 101 -25
4 1 7 -5 7 -14 0 -13 3 -14 14 -5 9 7 17 8 20 2 3 -5 14 -8 23 -7 19 3 43 -15
36 -27 -8 -13 27 -20 41 -8 10 8 21 7 42 -3 16 -8 52 -17 79 -20 28 -4 64 -11
80 -16 17 -5 46 -11 65 -15 280 -45 350 -55 378 -55 17 0 32 -4 32 -9 0 -9
455 -43 580 -43 154 1 572 30 580 41 5 7 272 44 323 45 15 1 27 4 27 9 0 4 15
7 33 7 18 0 39 6 46 13 11 10 13 9 8 -6 -6 -16 -5 -16 20 0 14 9 33 17 42 18
43 4 151 30 151 36 0 11 44 1 48 -11 2 -5 9 -10 15 -10 8 0 7 4 -1 12 -13 13
-16 29 -4 26 4 -1 17 3 30 10 12 7 22 10 22 6 0 -3 7 -1 15 6 11 9 15 9 15 1
0 -7 9 -6 25 5 14 9 25 13 25 9 0 -4 7 -2 15 5 12 10 15 10 15 -1 0 -8 5 -6
13 6 8 10 19 15 25 11 5 -3 12 -2 14 3 3 9 43 20 90 25 9 1 23 8 32 15 13 11
16 11 16 0 0 -12 2 -12 9 0 5 7 34 23 65 36 30 12 53 19 50 14 -3 -5 2 -9 10
-9 9 0 16 6 16 14 0 17 54 38 77 29 10 -4 14 -2 10 4 -4 6 22 22 61 37 37 15
82 34 100 42 18 8 39 14 47 14 8 0 15 6 15 14 0 15 35 32 58 28 6 -2 12 1 12
6 0 4 15 16 34 24 26 13 36 14 46 5 9 -8 11 -8 7 -1 -8 13 16 37 26 27 4 -3 7
-1 7 6 0 7 6 11 13 8 6 -2 28 7 47 20 19 13 36 19 38 13 2 -5 9 -4 16 3 8 6
11 18 9 25 -5 11 56 45 84 45 7 0 15 7 18 15 3 8 12 11 21 8 8 -3 12 -2 9 4
-3 5 7 15 22 22 15 7 31 17 34 22 4 5 12 5 18 2 6 -4 11 -1 11 8 0 8 17 24 38
37 20 12 47 31 60 42 12 11 22 17 22 12 0 -4 9 0 19 9 13 12 21 14 26 6 8 -13
41 21 50 51 4 12 16 19 31 19 15 0 24 6 24 15 0 18 11 19 30 2 12 -10 12 -9 2
4 -10 13 -9 19 2 29 9 6 21 8 27 4 7 -4 9 -3 6 3 -7 11 53 63 72 63 6 0 20 13
32 29 14 19 27 27 40 24 11 -3 19 0 19 6 0 7 -4 9 -10 6 -5 -3 -10 -1 -10 4 0
6 7 11 15 11 8 0 19 9 25 20 10 19 11 19 29 2 10 -9 16 -20 14 -25 -7 -11 12
-8 25 5 7 7 12 17 12 22 0 6 -5 4 -10 -4 -8 -13 -11 -13 -25 0 -14 14 -11 20
24 57 38 42 55 47 44 15 -4 -14 -3 -15 5 -2 6 8 8 18 5 23 -3 5 5 19 17 32 17
18 29 23 50 18 15 -3 31 0 34 6 5 7 1 9 -11 5 -17 -5 -17 -5 1 10 10 8 15 20
11 26 -6 10 138 160 155 160 4 0 13 -7 20 -15 7 -8 18 -15 24 -15 8 0 8 2 0 8
-22 15 -25 58 -4 77 10 9 23 14 29 10 7 -4 8 0 4 11 -4 11 -3 15 5 10 6 -3 14
-1 18 5 4 8 3 9 -4 5 -17 -10 -15 9 3 24 8 6 20 8 26 4 8 -5 9 -3 4 5 -6 11
29 56 45 56 3 0 5 6 5 13 0 8 10 19 23 26 12 7 20 15 17 18 -3 3 4 14 17 24
13 11 34 36 47 57 12 20 27 37 32 37 5 0 13 8 17 18 17 39 68 111 80 112 6 0
12 4 12 8 0 5 8 17 18 28 10 10 19 21 19 24 7 26 17 38 29 33 8 -3 14 0 14 6
0 6 -5 11 -12 11 -9 0 -9 3 0 12 17 17 15 38 -5 38 -9 0 -13 -3 -10 -6 4 -4
-2 -19 -12 -33 -10 -14 -21 -34 -24 -44 -5 -13 -13 -17 -28 -12 -14 5 -19 3
-15 -3 3 -6 2 -13 -4 -17 -6 -4 -8 -10 -5 -15 3 -5 -2 -13 -11 -18 -9 -5 -15
-12 -14 -16 1 -4 -11 -27 -26 -52 -19 -30 -30 -40 -36 -31 -5 8 -8 7 -8 -5 0
-10 -9 -32 -20 -50 -11 -18 -20 -29 -20 -24 0 5 -6 3 -14 -4 -8 -6 -12 -18 -9
-26 5 -13 -8 -19 -30 -15 -5 1 -6 -3 -2 -9 3 -5 3 -10 -2 -10 -4 0 -16 -14
-25 -30 -9 -17 -24 -30 -33 -30 -8 0 -14 -4 -13 -8 2 -4 -19 -35 -47 -69 -37
-46 -55 -60 -69 -56 -12 3 -16 1 -11 -6 10 -17 -13 -41 -32 -34 -10 4 -14 2
-9 -5 3 -6 2 -13 -4 -17 -6 -4 -8 -11 -5 -16 4 -5 0 -9 -7 -9 -7 0 -22 -11
-32 -25 -10 -13 -23 -22 -28 -19 -4 3 -7 0 -6 -7 2 -7 -8 -18 -22 -26 -14 -7
-19 -13 -11 -13 8 0 3 -8 -12 -20 -29 -23 -43 -25 -51 -7 -3 6 -3 0 0 -14 6
-29 -17 -55 -40 -46 -10 4 -14 0 -11 -14 2 -11 -1 -19 -8 -18 -22 4 -47 -13
-47 -31 0 -20 -66 -80 -87 -80 -7 0 -12 -3 -11 -8 6 -17 -82 -79 -105 -73 -5
1 -6 -3 -2 -9 3 -5 -1 -10 -9 -10 -9 0 -16 -5 -16 -11 0 -12 -40 -48 -53 -49
-5 0 -20 -9 -34 -20 -14 -11 -30 -17 -36 -13 -5 3 -7 1 -3 -5 10 -17 -13 -25
-32 -11 -14 11 -15 11 -5 -1 10 -11 9 -17 -4 -32 -9 -10 -22 -18 -30 -18 -8 0
-12 -4 -9 -9 7 -11 -22 -23 -36 -14 -7 3 -8 1 -4 -5 6 -11 -6 -16 -19 -9 -2 1
-12 -8 -21 -21 -8 -12 -23 -21 -32 -20 -9 2 -16 -2 -15 -8 1 -6 -10 -17 -25
-25 -15 -8 -29 -16 -32 -19 -13 -15 -69 -50 -79 -50 -6 0 -11 17 -11 39 0 22
-6 46 -12 53 -7 7 -14 20 -16 28 -2 8 -9 20 -15 25 -21 16 -58 86 -52 96 4 5
-2 6 -11 2 -14 -5 -16 -2 -12 21 4 21 2 26 -11 24 -19 -4 -55 37 -46 52 3 5 0
7 -8 4 -18 -6 -47 32 -47 61 0 14 -3 16 -9 7 -11 -18 -33 9 -29 35 2 9 -2 18
-9 18 -16 0 -64 65 -57 77 9 14 -16 37 -33 31 -13 -5 -15 -2 -11 15 4 15 2 19
-8 15 -12 -5 -19 8 -15 30 0 4 -3 7 -8 7 -5 0 -12 11 -15 25 -4 14 -11 23 -16
20 -8 -5 -21 20 -19 39 0 5 -12 17 -28 27 -15 10 -25 19 -21 19 3 0 -10 35
-31 78 -43 87 -76 178 -86 237 -4 22 -12 45 -19 50 -12 11 -17 33 -17 77 0 16
-3 28 -7 28 -4 0 -8 21 -10 46 -1 26 -5 52 -9 58 -4 6 -8 24 -10 41 -2 31 -10
70 -14 70 -2 0 -8 38 -13 80 -2 17 -4 32 -6 35 -1 3 -2 8 -1 12 0 4 -6 23 -15
43 -8 21 -13 39 -10 42 3 3 -1 18 -10 34 -8 16 -14 31 -14 34 1 21 -1 25 -10
20 -6 -4 -10 6 -10 22 0 15 -16 59 -34 97 -19 37 -32 76 -29 85 4 12 3 13 -5
3 -7 -10 -12 -5 -23 20 -8 18 -12 38 -11 43 2 6 1 7 -3 4 -8 -9 -75 51 -75 68
0 7 -17 29 -37 50 -21 20 -38 43 -40 51 -1 8 -7 19 -15 23 -7 4 -9 11 -5 15 4
4 0 16 -10 26 -9 10 -13 18 -9 18 3 0 -1 11 -10 25 -8 13 -13 29 -9 35 3 5 1
10 -5 10 -6 0 -9 4 -6 9 4 5 1 11 -4 13 -6 2 -13 14 -15 28 -3 14 -20 61 -39
104 -19 44 -33 83 -30 88 3 4 -1 5 -9 2 -20 -7 -47 54 -70 161 -10 50 -19 98
-19 108 1 9 -3 17 -8 17 -5 0 -7 7 -4 15 4 8 1 21 -5 29 -6 7 -8 16 -4 19 3 4
1 7 -4 7 -6 0 -10 8 -8 18 1 9 -2 22 -7 29 -5 7 -7 16 -4 21 3 5 -1 20 -9 35
-8 15 -11 27 -7 27 4 0 -1 7 -10 14 -10 7 -19 26 -21 42 -2 16 -11 46 -21 66
-10 21 -16 45 -12 53 3 8 0 14 -7 12 -7 -1 -12 5 -12 13 0 8 -15 44 -32 79
-18 35 -33 70 -33 77 0 8 -5 14 -11 14 -6 0 -8 10 -5 23 3 12 3 16 0 9 -10
-21 -36 24 -30 51 3 12 3 16 0 9 -9 -20 -36 36 -29 62 3 12 2 16 -1 9 -4 -10
-8 -10 -19 0 -10 9 -10 15 -1 26 7 9 7 12 0 8 -6 -3 -20 13 -32 38 -12 25 -26
45 -31 45 -10 0 -24 38 -21 59 1 7 -3 10 -9 6 -6 -3 -11 0 -11 8 0 8 -7 20
-15 27 -8 7 -13 16 -10 20 3 5 0 10 -5 12 -6 2 -12 10 -14 18 -2 8 -5 22 -8
30 -11 30 -29 151 -23 160 3 5 1 11 -4 14 -5 4 -12 25 -16 49 -4 23 -11 44
-15 47 -4 3 -21 77 -36 165 -25 142 -29 184 -29 370 1 186 4 227 28 358 24
129 38 178 57 197 3 3 6 18 8 35 2 16 8 35 13 41 5 6 6 13 4 16 -3 3 0 18 7
34 6 16 13 36 14 44 1 8 5 26 9 40 9 37 17 93 17 113 -1 9 3 17 7 17 4 0 7 12
6 28 -1 15 2 32 7 39 6 7 7 17 4 22 -8 12 6 21 40 27 15 3 32 6 38 7 6 1 13 4
16 7 15 15 52 30 60 25 6 -4 10 -1 10 5 0 6 4 9 9 6 5 -4 11 -2 13 3 1 5 10
11 18 13 8 2 18 8 23 13 4 6 11 4 17 -5 8 -13 10 -13 10 2 0 21 58 70 72 62 7
-4 8 -2 4 4 -4 7 -1 12 8 12 9 0 16 3 16 8 0 4 18 18 40 32 22 14 40 29 40 33
0 5 7 7 15 3 11 -4 15 2 15 20 0 14 4 23 10 19 6 -3 30 10 54 29 23 20 51 36
60 36 9 0 19 7 23 16 5 14 44 36 68 38 6 1 10 7 10 13 0 30 129 87 159 71 12
-7 14 -5 10 5 -3 10 15 25 57 47 35 18 69 38 76 45 7 8 30 19 50 25 21 6 45
14 53 17 8 3 24 7 35 9 11 2 31 6 45 8 29 5 90 15 140 21 30 5 54 8 128 17 6
1 12 6 12 11 0 5 7 7 15 3 8 -3 15 -1 15 5 0 6 4 8 9 5 5 -3 12 1 15 9 3 8 9
14 13 13 11 -4 96 34 105 46 4 6 10 8 13 4 4 -3 16 3 27 14 11 11 26 17 34 14
9 -3 12 -1 9 4 -6 9 8 14 28 11 5 -1 6 3 3 8 -4 5 2 12 13 16 11 3 26 17 35
30 9 14 21 25 27 25 6 0 23 9 39 20 15 11 31 16 35 12 5 -4 5 -1 1 6 -7 11 5
17 27 13 5 -1 6 3 3 8 -3 5 11 17 32 26 20 10 47 27 60 38 12 11 22 17 22 13
0 -5 9 2 20 15 10 13 19 20 20 15 0 -5 7 -3 15 4 9 7 18 10 21 7 4 -3 13 0 21
8 18 19 70 33 163 45 108 15 204 33 210 40 5 6 150 45 213 57 15 3 27 8 27 12
0 3 10 7 23 8 35 3 50 8 75 22 13 7 31 10 40 6 9 -3 13 -3 10 0 -4 4 9 20 28
37 19 16 32 33 30 37 -2 3 3 22 12 41 20 46 22 70 6 77 -16 6 -7 33 11 33 7 0
15 -7 19 -15 3 -8 12 -15 21 -15 8 0 15 -7 15 -15 0 -15 8 -28 41 -63 9 -9 24
-33 35 -52 10 -19 25 -40 33 -46 8 -6 11 -16 7 -22 -4 -7 -1 -12 8 -12 15 0
42 -38 38 -53 -1 -5 1 -6 6 -3 5 3 16 -10 25 -29 16 -34 27 -42 40 -29 6 6
-40 83 -58 96 -5 4 -6 8 -1 8 5 0 3 6 -3 13 -6 8 -7 18 -3 22 4 5 -1 5 -10 2
-14 -5 -18 -1 -19 16 -1 12 -1 26 0 31 1 5 -5 4 -13 -3 -12 -10 -19 -5 -41 33
-15 25 -31 46 -36 46 -5 0 -9 6 -9 14 0 8 -22 38 -50 67 -27 30 -50 60 -50 67
0 7 -4 10 -10 7 -5 -3 -10 1 -10 9 0 9 -5 16 -12 16 -6 0 -8 3 -5 7 4 3 -2 13
-13 20 -11 8 -18 19 -15 24 4 5 0 9 -8 9 -8 0 -14 8 -13 18 1 12 -6 17 -22 16
-16 -1 -22 3 -18 13 3 8 2 12 -3 9 -11 -7 -33 19 -24 28 4 3 -3 13 -15 22 -12
8 -19 20 -16 26 4 6 3 8 -3 5 -11 -7 -51 31 -53 48 0 6 -8 10 -18 10 -11 0
-17 8 -16 23 0 15 -3 19 -9 13 -10 -10 -56 25 -57 42 0 9 -30 42 -30 34 0 -3
-14 8 -31 24 -17 16 -37 29 -44 29 -18 0 -45 56 -33 68 5 5 0 8 -14 8 -13 -1
-22 4 -21 9 1 6 -8 12 -20 12 -12 1 -38 19 -57 40 -19 21 -36 37 -37 36 -7 -6
-33 11 -33 21 0 6 -16 20 -35 30 -19 11 -35 23 -35 28 0 4 -5 8 -11 8 -13 0
-39 25 -39 39 0 6 -7 8 -15 5 -8 -4 -17 1 -21 10 -3 9 -10 13 -15 10 -5 -3
-13 5 -18 18 -6 13 -10 19 -10 14 -1 -14 -41 25 -41 40 0 7 -8 10 -20 7 -11
-3 -20 0 -20 6 0 6 -7 11 -15 11 -8 0 -15 4 -15 9 0 5 -10 13 -22 16 -13 4
-35 20 -49 36 -15 15 -30 25 -35 21 -4 -4 -5 0 -1 9 4 13 1 16 -15 11 -16 -4
-19 -2 -13 9 5 8 5 11 1 7 -11 -9 -67 12 -60 23 3 5 2 8 -3 7 -14 -4 -53 13
-53 23 0 5 -7 9 -15 9 -8 0 -15 5 -15 10 0 6 -5 10 -12 10 -22 0 -78 45 -73
58 3 8 0 10 -6 6 -6 -3 -21 -2 -32 4 -70 33 -103 46 -109 44 -5 -1 -8 2 -8 8
0 5 -7 10 -15 10 -9 0 -18 7 -21 15 -4 8 -15 15 -25 15 -10 0 -19 5 -19 10 0
6 -6 10 -13 10 -18 0 -67 24 -67 33 0 4 -5 7 -10 7 -6 0 -27 7 -48 17 -20 9
-40 15 -44 15 -4 -1 -34 10 -65 25 -32 14 -60 27 -63 27 -3 1 -16 8 -30 16
-14 8 -31 15 -39 16 -8 2 -18 9 -22 16 -5 7 -9 9 -9 4 0 -5 -6 -3 -13 3 -8 6
-17 8 -20 4 -4 -3 -13 0 -22 7 -8 7 -15 9 -15 6 0 -4 -10 -1 -22 6 -13 6 -32
13 -42 15 -11 2 -25 8 -32 14 -7 6 -18 8 -23 5 -5 -4 -12 -2 -16 4 -4 6 -10 8
-14 6 -8 -5 -73 16 -135 43 -46 21 -245 71 -381 96 -49 9 -97 19 -105 22 -8 3
-35 7 -60 9 -25 2 -54 8 -65 13 -25 12 -91 24 -127 24 -16 0 -28 2 -28 6 0 3
-19 7 -42 8 -24 1 -65 4 -93 7 -27 3 -81 7 -120 8 -38 2 -74 5 -80 8 -5 3
-129 5 -275 5 -231 -1 -266 1 -272 14 -6 14 -7 14 -7 0z m584 -68 c72 -5 138
-13 148 -16 10 -4 17 -3 17 4 0 8 5 9 19 1 11 -5 40 -10 65 -10 25 0 46 -4 46
-10 0 -5 13 -10 29 -10 62 0 465 -69 511 -87 8 -3 20 -5 26 -4 7 1 25 -4 40
-11 16 -6 42 -13 58 -15 17 -2 32 -7 35 -12 3 -5 22 -12 41 -16 19 -4 40 -10
45 -13 6 -4 15 -7 20 -8 6 0 15 -2 22 -2 7 -1 11 -8 9 -14 -1 -7 -1 -10 1 -5
3 4 14 7 24 7 11 0 18 -4 15 -9 -3 -5 8 -7 24 -6 17 1 30 -2 30 -7 0 -6 7 -8
15 -4 8 3 15 0 15 -6 0 -6 3 -9 6 -5 3 3 29 -3 58 -14 28 -12 51 -20 51 -18 0
1 17 -4 37 -11 20 -8 34 -18 31 -24 -4 -5 1 -7 10 -3 10 3 17 3 17 -1 0 -4 25
-16 55 -26 30 -11 52 -23 48 -29 -3 -6 -1 -7 5 -3 18 11 280 -104 290 -126 2
-5 10 -8 18 -8 8 0 14 -4 14 -10 0 -5 7 -7 15 -4 8 4 15 1 15 -7 0 -7 3 -9 6
-6 4 3 16 1 28 -5 11 -7 25 -12 29 -13 4 0 11 -6 16 -13 5 -8 10 -13 12 -12
10 4 45 -16 57 -32 7 -10 19 -18 27 -18 22 0 136 -75 128 -84 -5 -4 -3 -7 2
-6 6 1 12 1 15 0 3 -1 14 -3 25 -5 11 -2 21 -9 23 -14 2 -6 11 -11 19 -11 8 0
13 -6 10 -13 -3 -8 0 -14 6 -14 20 -1 108 -50 107 -59 -1 -5 7 -11 17 -13 10
-2 23 -11 30 -20 7 -9 13 -12 13 -8 0 4 15 -6 33 -22 17 -17 38 -31 45 -31 11
0 16 -13 13 -33 0 -4 4 -6 11 -5 7 2 12 -2 13 -9 0 -6 4 -15 9 -20 5 -5 6 -2
1 6 -4 7 -4 12 1 9 43 -20 64 -33 64 -40 0 -4 5 -8 10 -8 14 0 66 -52 63 -62
-2 -4 4 -5 12 -2 9 4 21 -5 32 -23 10 -15 23 -28 28 -28 17 0 49 -29 64 -57 8
-16 20 -28 26 -28 14 0 90 -70 78 -71 -4 -1 3 -4 17 -8 14 -4 26 -15 28 -27 2
-11 12 -27 24 -35 12 -8 35 -26 51 -41 17 -16 34 -28 39 -28 5 0 6 -4 3 -10
-3 -5 0 -10 8 -10 7 0 24 -15 37 -32 13 -18 29 -37 37 -41 7 -4 13 -13 13 -19
0 -11 50 -58 63 -58 4 0 7 -6 7 -13 0 -9 -11 -12 -35 -11 -24 2 -38 -2 -42
-12 -3 -8 -10 -14 -17 -13 -6 1 -18 0 -26 -4 -30 -12 -218 -67 -228 -67 -19 0
-6 35 17 46 26 13 59 72 54 96 -6 23 -30 30 -48 12 -8 -9 -15 -12 -15 -8 0 4
-9 -1 -19 -10 -18 -17 -19 -17 -24 1 -4 15 -5 15 -6 -3 -1 -20 -25 -39 -43
-36 -5 1 -8 -5 -8 -13 0 -9 -12 -20 -26 -25 -15 -6 -38 -19 -51 -30 -14 -11
-30 -17 -37 -13 -6 3 -8 3 -4 -1 4 -5 -12 -26 -35 -48 -23 -22 -41 -44 -40
-49 2 -5 -6 -9 -16 -9 -12 0 -21 -9 -25 -25 -4 -14 -11 -25 -16 -25 -5 0 -18
-10 -30 -22 -14 -15 -20 -18 -20 -7 0 12 -2 12 -9 -1 -6 -8 -8 -17 -6 -20 2
-3 -6 -7 -17 -7 -11 -1 -25 -8 -31 -16 -19 -23 -213 -63 -343 -71 -122 -8
-306 -51 -324 -76 -3 -4 -33 -20 -67 -35 -35 -15 -63 -32 -63 -38 0 -5 -6 -4
-14 2 -11 10 -16 8 -21 -9 -3 -11 -10 -18 -14 -16 -4 3 -26 -6 -50 -20 -24
-13 -49 -24 -57 -24 -8 0 -17 -6 -20 -14 -3 -8 -13 -12 -24 -9 -10 3 -29 -3
-43 -12 -14 -9 -31 -15 -39 -14 -7 1 -24 -1 -38 -5 -14 -4 -41 -8 -60 -10 -19
-2 -42 -6 -50 -9 -53 -20 -132 -37 -142 -31 -7 5 -8 3 -4 -5 5 -8 3 -11 -5
-10 -8 2 -48 -13 -89 -33 -41 -19 -102 -43 -135 -53 -33 -11 -62 -21 -65 -24
-3 -3 -14 -6 -25 -7 -11 -1 -40 -5 -65 -9 -25 -4 -51 -8 -57 -8 -7 0 -13 -4
-13 -8 0 -4 -9 -6 -20 -4 -11 2 -20 -1 -20 -6 0 -6 -4 -8 -8 -5 -4 3 -26 0
-48 -5 -21 -6 -45 -11 -51 -11 -7 -1 -13 -6 -13 -13 0 -6 -8 -11 -17 -12 -28
-2 -46 -8 -80 -26 -18 -10 -33 -14 -33 -11 0 4 -8 -1 -19 -10 -16 -15 -20 -15
-33 -2 -12 11 -18 12 -28 3 -10 -9 -14 -9 -17 1 -3 6 -9 10 -14 6 -5 -3 -15
-2 -21 3 -7 4 -24 9 -38 11 -13 2 -27 8 -31 14 -3 5 -9 9 -13 9 -26 -4 -47 1
-60 15 -9 8 -16 13 -16 9 0 -3 -6 -3 -12 2 -7 4 -20 9 -28 11 -8 1 -26 5 -40
8 -14 3 -39 6 -56 8 -17 1 -36 6 -42 10 -7 4 -16 5 -21 2 -9 -6 -31 36 -31 59
0 7 -5 15 -11 17 -11 4 -12 25 -10 116 1 19 5 31 11 27 6 -3 10 3 10 14 0 11
4 23 10 26 5 3 14 23 20 45 6 23 18 41 29 45 18 5 23 16 53 98 6 17 16 38 21
45 6 7 12 26 14 42 1 16 3 33 4 37 5 30 -5 57 -32 83 -28 27 -32 38 -40 113
-5 46 -13 97 -19 113 -24 63 -54 114 -68 114 -8 0 -12 6 -9 14 8 20 -4 28 -20
15 -7 -7 -13 -7 -13 -2 0 17 -100 43 -164 43 -34 0 -87 -8 -117 -17 -30 -9
-58 -16 -62 -15 -5 2 -6 -2 -3 -7 3 -5 -8 -14 -24 -20 -17 -5 -30 -15 -30 -21
0 -6 -5 -8 -12 -4 -9 5 -9 2 1 -9 11 -14 11 -17 0 -17 -13 0 -19 -16 -46 -130
-4 -14 -7 -52 -7 -85 -1 -57 -18 -91 -38 -79 -4 3 -12 -14 -18 -37 -12 -43 -8
-90 12 -138 6 -14 13 -35 14 -46 2 -11 7 -31 11 -45 3 -14 6 -28 5 -31 -1 -4
10 -10 23 -13 14 -4 25 -12 25 -20 0 -7 7 -19 15 -26 9 -7 13 -15 10 -18 -3
-3 0 -11 6 -19 6 -7 9 -13 6 -13 -3 0 5 -12 19 -27 14 -15 22 -33 20 -40 -3
-7 -1 -13 4 -13 5 0 6 -12 4 -27 -3 -16 -7 -41 -9 -58 -2 -16 -4 -31 -5 -32
-2 -2 -3 -7 -4 -12 0 -5 -12 -18 -26 -29 -23 -18 -43 -24 -115 -37 -11 -2 -21
-4 -22 -5 -2 -2 -7 -4 -13 -5 -5 -1 -11 -3 -12 -5 -2 -1 -12 -3 -22 -5 -10 -2
-22 -7 -25 -12 -3 -4 -12 -9 -19 -11 -7 -1 -20 -4 -30 -6 -9 -1 -30 -8 -46
-15 -16 -6 -31 -9 -34 -7 -2 3 -12 1 -22 -4 -9 -5 -29 -12 -43 -15 -15 -3 -38
-7 -52 -10 -14 -3 -25 -1 -25 5 0 5 -3 9 -7 8 -21 -5 -52 14 -46 29 5 13 3 14
-15 4 -11 -6 -23 -7 -26 -2 -3 4 -19 11 -36 15 -17 3 -29 10 -26 15 4 5 -2 8
-11 6 -10 -1 -23 2 -29 7 -11 8 -44 15 -99 22 -11 1 -28 6 -37 10 -10 5 -25 6
-33 2 -8 -3 -15 -2 -15 2 0 4 -12 9 -27 10 -49 4 -173 41 -238 72 -89 42 -194
80 -235 86 -19 3 -51 10 -70 16 -19 7 -47 11 -62 9 -16 -1 -28 1 -28 6 0 4
-19 9 -42 10 -24 1 -44 7 -46 12 -2 6 -8 8 -13 5 -6 -3 -18 0 -27 8 -30 24
-63 39 -72 33 -5 -3 -12 1 -17 8 -8 14 -39 30 -59 32 -6 0 -18 5 -25 12 -8 6
-21 13 -29 15 -8 2 -23 10 -33 20 -10 9 -31 19 -45 23 -14 3 -37 14 -51 24
-30 21 -200 57 -319 67 -45 3 -85 11 -88 15 -3 5 -10 7 -15 3 -11 -6 -141 14
-179 28 -14 5 -25 8 -26 6 0 -2 -17 10 -37 25 -20 15 -37 25 -37 21 0 -3 -7
-1 -15 6 -8 7 -12 17 -8 23 3 5 1 7 -4 4 -12 -8 -89 69 -85 83 1 6 -4 9 -10 8
-7 -2 -13 4 -13 12 0 13 -47 51 -107 86 -11 6 -19 15 -19 20 1 8 -4 10 -37 13
-7 0 -11 5 -7 10 3 5 -4 12 -15 16 -11 4 -18 11 -15 16 3 5 0 6 -8 3 -8 -3
-21 2 -30 10 -8 8 -17 12 -21 9 -3 -4 -6 -2 -6 4 0 11 -38 29 -59 29 -15 -1
-22 -64 -8 -73 4 -2 5 -9 2 -14 -4 -5 0 -9 7 -9 16 0 92 -69 85 -76 -8 -9 -48
6 -42 16 3 4 -4 6 -15 3 -11 -3 -55 6 -97 20 -43 15 -91 30 -107 35 -38 11
-55 36 -39 60 6 9 17 16 23 14 7 -2 10 3 7 11 -6 16 111 134 127 129 6 -2 8 0
3 4 -10 10 23 45 36 37 5 -3 7 -1 4 4 -9 14 19 37 34 27 7 -4 9 -3 5 4 -8 14
43 74 56 65 6 -3 8 -1 5 4 -4 6 12 27 36 46 23 19 61 53 85 76 28 27 48 38 59
34 11 -4 14 -3 9 6 -8 13 12 44 24 36 4 -2 20 9 35 25 15 16 33 26 38 23 6 -4
8 0 5 9 -4 10 14 28 60 59 37 24 68 42 70 41 1 -1 12 7 24 18 14 13 25 16 33
10 8 -7 11 -3 11 13 -1 14 4 21 13 19 9 -2 11 3 7 14 -4 12 -2 15 9 10 8 -3
15 -1 15 4 0 6 4 9 9 8 5 -2 17 6 25 17 14 17 17 18 26 5 9 -12 10 -12 8 5 -2
12 2 19 10 17 6 -1 12 3 12 9 0 5 5 7 12 3 7 -4 8 -3 4 4 -4 7 4 17 21 24 15
7 39 23 53 35 23 22 42 28 65 23 5 -1 7 2 2 6 -9 10 70 57 83 49 6 -3 10 -1
10 5 0 6 4 9 9 5 5 -3 12 4 16 14 3 11 12 18 19 15 7 -3 27 8 44 25 18 16 32
26 32 23 0 -3 5 -1 12 6 7 7 20 12 30 12 10 0 18 4 18 8 0 12 70 43 81 37 5
-4 9 -2 9 3 0 9 53 36 65 32 4 -1 15 8 24 19 10 12 23 21 28 21 5 0 29 9 52
21 24 11 55 21 70 22 14 1 34 9 43 17 9 8 47 26 85 39 37 13 73 30 80 38 6 8
15 14 20 14 6 0 51 11 93 24 3 1 18 7 33 13 16 7 34 12 42 12 8 0 17 5 20 11
4 6 13 8 21 5 7 -3 16 -1 19 4 3 5 14 7 25 5 11 -2 20 1 20 7 0 6 3 9 6 5 4
-3 19 0 35 9 16 8 29 13 29 10 0 -6 68 13 105 29 65 28 398 93 575 111 36 4
70 11 76 16 7 5 27 8 45 8 19 0 48 1 64 4 66 11 153 18 212 18 35 0 65 2 67 6
6 9 350 5 511 -7z m-4043 -1851 c18 -11 28 -20 22 -20 -17 0 -25 -29 -15 -48
10 -19 71 -57 71 -45 0 4 4 3 8 -3 12 -17 231 -86 320 -100 23 -4 42 -10 42
-13 0 -9 100 -28 185 -37 97 -9 264 -67 287 -99 4 -5 8 -7 8 -2 0 4 23 -11 51
-33 28 -22 54 -40 58 -40 5 0 19 -10 32 -21 13 -12 36 -26 52 -31 15 -6 27
-14 27 -19 0 -5 7 -9 16 -9 8 0 13 -4 10 -8 -5 -8 18 -32 39 -42 5 -3 9 -9 7
-13 -1 -5 2 -6 8 -2 10 6 63 -19 88 -42 7 -7 19 -13 26 -13 7 0 21 -9 30 -19
10 -11 26 -18 37 -16 12 2 19 -2 19 -11 0 -8 5 -12 10 -9 6 3 16 3 23 -2 6 -4
18 -9 25 -10 6 -2 18 -4 25 -6 6 -1 17 -5 22 -9 6 -3 21 -5 35 -4 14 1 30 -2
36 -6 7 -5 24 -7 38 -4 14 3 28 1 30 -3 3 -4 20 -8 38 -9 52 -3 96 -10 109
-18 11 -6 33 -10 87 -16 10 -1 15 -10 14 -28 0 -3 10 -6 22 -6 19 -1 79 -35
113 -64 7 -6 16 -11 20 -11 5 -1 18 -5 31 -10 13 -5 27 -9 33 -9 23 0 90 -37
95 -52 3 -9 11 -15 18 -12 11 4 23 -4 73 -46 7 -5 16 -10 20 -10 18 0 64 -49
57 -61 -4 -8 -3 -9 5 -5 15 10 84 -22 76 -34 -3 -5 8 -16 25 -25 16 -8 30 -19
30 -24 0 -5 9 -11 21 -14 12 -3 18 -10 14 -16 -3 -7 2 -11 15 -11 31 0 81 -40
75 -61 -6 -19 21 -34 29 -16 3 9 8 8 18 -3 7 -8 18 -15 23 -16 34 -4 56 -18
50 -33 -5 -12 -4 -13 6 -4 9 9 17 9 33 0 12 -6 24 -12 29 -13 4 -1 8 -2 10 -4
2 -2 18 -6 56 -14 30 -7 41 -22 41 -60 0 -16 14 -90 31 -165 17 -75 34 -147
37 -161 3 -14 9 -28 14 -31 4 -3 14 -29 20 -57 7 -29 16 -52 20 -52 4 0 5 -7
2 -15 -4 -8 -3 -23 1 -32 10 -24 23 -101 27 -160 1 -7 5 -13 8 -13 4 0 6 -18
5 -40 -1 -22 1 -40 4 -40 4 0 6 -28 5 -62 -1 -35 1 -67 5 -73 7 -9 7 -100 1
-100 -1 0 -4 -27 -6 -60 -4 -77 -9 -121 -19 -167 -4 -20 -8 -54 -10 -75 -2
-21 -4 -38 -6 -38 -2 0 -8 -33 -11 -65 -2 -14 -6 -27 -10 -30 -4 -3 -9 -29
-11 -58 -2 -29 -7 -55 -11 -59 -3 -3 -6 -17 -6 -29 0 -13 -4 -25 -9 -28 -7 -5
-29 -95 -37 -152 -1 -11 -16 -43 -32 -71 -16 -27 -33 -60 -37 -72 -3 -12 -11
-18 -17 -15 -6 4 -8 -1 -4 -14 5 -14 0 -26 -16 -39 -13 -10 -24 -24 -26 -32
-1 -7 -9 -20 -17 -28 -9 -8 -13 -19 -10 -24 4 -5 1 -9 -5 -9 -6 0 -9 -4 -6 -9
7 -11 -52 -121 -65 -121 -6 0 -7 -5 -4 -10 10 -17 -5 -49 -26 -55 -10 -4 -17
-10 -14 -14 8 -13 -27 -91 -38 -84 -6 3 -7 1 -3 -5 3 -6 -12 -66 -34 -133 -22
-66 -40 -127 -40 -135 0 -8 -4 -14 -10 -14 -5 0 -10 -9 -10 -20 0 -11 -5 -20
-11 -20 -5 0 -7 -5 -4 -10 4 -6 3 -19 -1 -28 -7 -18 -12 -34 -19 -67 -6 -33
-13 -60 -15 -60 -1 0 -3 -13 -5 -30 -2 -16 -7 -41 -11 -55 -4 -14 -6 -29 -5
-34 1 -4 -3 -14 -10 -22 -6 -7 -8 -18 -4 -24 3 -5 1 -10 -6 -10 -7 0 -10 -3
-6 -6 9 -9 -26 -44 -37 -37 -6 4 -5 0 2 -9 11 -14 11 -18 -2 -25 -8 -4 -25
-35 -39 -68 -13 -33 -29 -59 -35 -58 -6 2 -10 -12 -10 -30 1 -30 -70 -247 -71
-219 -1 19 -21 14 -21 -5 0 -10 -17 -37 -38 -59 -49 -55 -82 -97 -82 -105 0
-4 -9 -11 -21 -14 -11 -4 -18 -12 -16 -18 2 -7 -3 -19 -12 -27 -9 -8 -16 -22
-16 -30 1 -8 -7 -26 -17 -39 -10 -13 -27 -55 -38 -92 -12 -38 -24 -69 -28 -69
-4 0 -13 -26 -19 -57 -7 -32 -22 -98 -33 -148 -11 -49 -22 -108 -25 -129 -3
-22 -8 -42 -12 -45 -5 -3 -9 -28 -11 -56 -1 -27 -5 -57 -8 -65 -4 -8 -8 -32
-10 -54 -2 -21 -10 -49 -19 -62 -12 -18 -12 -24 -3 -24 10 0 10 -2 0 -8 -8 -5
-10 -16 -6 -27 6 -14 4 -17 -9 -12 -10 4 -16 0 -16 -11 -3 -49 -6 -59 -18 -55
-7 3 -13 0 -13 -6 0 -6 4 -11 9 -11 5 0 8 -8 6 -17 -2 -10 -4 -21 -4 -25 -1
-5 -8 -8 -17 -8 -8 0 -13 -4 -9 -9 6 -11 -25 -81 -36 -81 -4 0 -10 -13 -14
-29 -3 -16 -16 -40 -28 -53 -12 -13 -29 -35 -36 -50 -8 -15 -19 -26 -25 -25
-6 1 -9 -7 -8 -17 3 -17 2 -18 -12 -7 -17 14 -22 1 -6 -15 13 -13 -17 -57 -33
-48 -7 4 -9 4 -5 -1 12 -12 -22 -67 -37 -61 -9 3 -12 0 -9 -9 3 -7 -5 -21 -20
-30 -13 -9 -26 -26 -28 -38 -2 -13 -9 -21 -18 -19 -8 2 -12 0 -8 -4 8 -8 -15
-42 -62 -93 -17 -18 -38 -44 -47 -57 -8 -13 -20 -21 -26 -17 -5 3 -8 2 -5 -3
3 -5 -9 -36 -27 -69 -24 -42 -40 -60 -55 -61 -28 -2 -39 -14 -11 -14 20 0 21
-1 6 -23 -8 -13 -12 -27 -8 -30 3 -4 1 -7 -5 -7 -22 0 -102 55 -102 70 0 12
-2 12 -8 2 -7 -10 -15 -8 -35 8 -14 12 -28 20 -29 18 -8 -7 -48 39 -48 56 0
20 0 20 -16 0 -15 -18 -15 -18 -11 4 4 17 2 21 -6 14 -13 -11 -41 11 -29 22 3
4 0 5 -8 1 -17 -6 -73 38 -63 49 4 4 0 4 -10 0 -9 -3 -17 -1 -17 4 0 6 -16 16
-34 23 -19 7 -33 16 -31 20 3 4 -2 10 -11 13 -8 3 -12 10 -9 16 3 5 -2 10 -12
10 -10 0 -25 9 -33 20 -8 11 -19 20 -25 20 -6 0 -16 9 -23 21 -7 12 -16 18
-19 15 -8 -8 -43 34 -44 53 0 10 -2 11 -6 4 -3 -9 -10 -7 -25 7 -12 11 -17 24
-13 31 5 8 4 10 -3 5 -7 -4 -23 4 -36 17 -14 14 -27 23 -30 20 -9 -9 -48 35
-41 46 3 6 -2 11 -12 12 -10 0 -13 3 -6 6 10 3 10 7 0 18 -7 7 -15 11 -18 9
-3 -2 -21 10 -39 26 -18 16 -42 32 -52 36 -10 3 -16 9 -13 14 3 5 -11 26 -32
47 -20 21 -36 44 -34 52 1 7 -2 10 -9 6 -6 -4 -18 -1 -26 6 -12 10 -12 14 -2
22 9 6 7 7 -6 3 -23 -8 -57 20 -49 40 3 9 -1 14 -12 14 -14 0 -15 3 -6 14 9
11 8 14 -6 12 -11 0 -17 5 -15 14 2 8 0 12 -4 7 -9 -9 -45 23 -38 34 3 5 -6
13 -20 19 -22 8 -56 50 -41 50 4 0 -1 7 -9 16 -9 8 -16 23 -17 32 0 12 -2 13
-6 4 -3 -9 -14 0 -31 25 -14 21 -35 47 -47 58 -12 12 -21 31 -20 43 1 14 -3
21 -10 18 -14 -5 -45 28 -45 47 0 7 6 19 13 27 10 12 9 12 -7 0 -16 -13 -20
-12 -37 8 -10 13 -15 30 -12 39 4 10 2 14 -4 10 -15 -9 -45 21 -37 35 4 7 2 8
-4 4 -12 -7 -16 5 -13 32 1 6 -5 12 -14 12 -8 0 -15 7 -15 15 0 8 -4 15 -8 15
-4 0 -14 16 -21 35 -7 20 -24 47 -38 61 -17 17 -24 33 -21 49 5 21 3 23 -15
14 -11 -7 -17 -7 -13 -1 3 5 -2 20 -12 33 -21 27 -51 91 -49 100 1 4 -6 15
-15 25 -9 11 -18 26 -20 34 -2 8 -13 25 -25 38 -25 25 -30 37 -10 26 6 -4 4 1
-5 12 -33 38 -98 190 -101 237 -1 9 -10 20 -20 23 -15 5 -33 51 -27 70 1 4 -2
10 -7 13 -17 11 -50 90 -40 94 5 1 2 10 -7 19 -9 9 -16 23 -16 31 0 7 -3 17
-7 21 -4 3 -8 16 -10 27 -2 11 -10 33 -18 48 -8 16 -11 31 -8 35 4 3 1 6 -6 6
-8 0 -10 7 -6 20 5 15 2 20 -11 20 -10 0 -14 3 -11 6 3 4 1 16 -4 27 -6 11
-13 34 -16 51 -7 40 -11 60 -13 64 -2 1 -3 5 -5 10 -1 4 -4 14 -8 22 -8 19
-36 135 -42 175 -9 52 -40 180 -46 190 -11 17 -41 206 -35 222 3 8 1 11 -4 8
-6 -4 -10 11 -10 38 0 24 -3 46 -6 50 -3 3 -7 27 -9 54 -2 26 -6 71 -9 98 -18
180 -36 601 -26 620 3 6 6 57 7 115 2 58 6 141 9 185 4 44 7 99 8 123 0 23 4
42 8 42 3 0 6 15 6 33 0 17 10 93 22 167 12 74 24 154 27 178 3 23 10 42 14
42 5 0 9 9 9 21 0 21 25 130 37 159 3 8 7 22 8 30 9 69 18 99 27 93 7 -3 8 -1
4 5 -8 13 23 152 34 152 4 0 7 6 8 13 2 27 9 46 21 61 7 9 11 16 8 16 -3 0 5
27 18 60 13 33 21 60 19 60 -2 0 3 14 11 31 9 17 14 33 11 37 -3 3 1 13 10 23
8 9 16 26 17 38 1 11 5 21 9 21 4 0 8 11 8 24 0 14 4 27 9 30 5 3 12 18 15 32
8 30 30 56 40 46 4 -3 4 1 1 10 -8 20 85 229 97 222 5 -3 8 -2 7 3 -4 22 2 43
11 38 6 -3 10 -1 10 5 0 6 7 27 17 48 9 20 15 41 14 47 -2 5 1 7 5 2 4 -4 17
12 29 35 37 74 73 137 87 152 31 35 38 46 38 59 0 8 9 24 20 37 11 13 20 26
20 30 0 4 11 20 25 36 14 16 25 34 25 41 0 6 12 21 28 33 15 12 20 18 12 14
-10 -5 -8 1 5 17 11 13 23 26 26 29 3 3 8 13 12 23 4 11 12 15 18 11 8 -4 9
-3 5 4 -4 7 -2 12 3 12 6 0 10 3 9 8 -4 19 74 119 94 121 4 1 22 -8 40 -19z
m3736 -3596 c12 -4 22 -12 22 -19 0 -7 10 -15 22 -19 18 -4 20 -8 10 -18 -13
-13 -17 -32 -4 -25 8 6 26 -13 30 -33 2 -8 7 -17 12 -20 5 -3 10 -12 12 -20 2
-8 9 -21 16 -29 7 -7 11 -20 8 -27 -3 -8 -1 -14 4 -14 6 0 10 -7 10 -15 0 -8
5 -15 11 -15 6 0 8 -7 5 -16 -3 -8 -2 -13 3 -9 5 3 15 -11 21 -30 6 -19 15
-33 19 -30 4 2 20 -21 34 -53 15 -31 33 -68 41 -82 8 -14 24 -46 37 -72 13
-26 32 -49 43 -52 16 -4 17 -7 6 -20 -11 -15 -7 -20 12 -17 4 0 11 -11 14 -25
4 -14 17 -37 31 -52 18 -19 20 -27 11 -34 -10 -6 -8 -8 5 -8 9 0 17 -3 17 -8
0 -4 20 -34 45 -67 25 -33 43 -66 40 -73 -3 -7 -1 -11 4 -8 14 9 32 -20 25
-38 -5 -12 -2 -15 10 -10 15 6 22 -11 17 -39 -1 -5 3 -5 9 -2 7 4 14 -2 17
-13 2 -11 13 -22 23 -25 10 -2 26 -21 35 -41 10 -20 27 -43 38 -51 12 -8 18
-18 14 -21 -4 -4 7 -16 24 -26 17 -11 27 -23 23 -30 -4 -7 -3 -8 5 -4 6 4 18
2 26 -4 22 -19 80 -123 77 -139 -2 -7 1 -10 6 -7 12 7 34 -52 25 -67 -3 -5 -1
-7 5 -3 11 6 42 -19 42 -34 0 -5 -8 -7 -17 -4 -14 4 -13 2 2 -7 11 -8 23 -14
26 -14 12 0 68 -53 62 -59 -3 -3 0 -13 8 -22 7 -9 15 -25 16 -37 2 -12 9 -25
16 -29 6 -4 8 -8 4 -8 -4 0 2 -10 13 -22 11 -12 18 -28 16 -35 -3 -7 -1 -15 5
-19 6 -3 8 -12 5 -19 -3 -8 -1 -15 5 -17 5 -2 11 -12 14 -23 2 -11 8 -36 13
-55 5 -19 9 -37 10 -40 2 -14 15 -48 28 -79 12 -27 12 -36 2 -49 -9 -11 -9
-14 -1 -9 20 12 37 -31 21 -51 -7 -9 -8 -13 -2 -9 17 10 60 -44 56 -71 -2 -12
1 -22 6 -22 5 0 17 -19 27 -42 10 -24 25 -50 32 -59 8 -9 16 -27 18 -39 3 -13
9 -28 15 -34 14 -14 13 -39 -2 -30 -7 4 -8 3 -4 -4 4 -6 13 -9 20 -6 13 5 26
-14 33 -49 2 -10 10 -25 18 -34 8 -8 13 -18 10 -23 -3 -4 2 -11 10 -14 8 -3
14 -9 13 -13 -2 -5 7 -19 20 -33 12 -13 22 -29 22 -36 0 -6 6 -23 13 -37 11
-20 17 -23 25 -15 9 9 12 8 12 -5 0 -9 5 -17 11 -17 5 0 15 -13 20 -30 6 -16
15 -27 20 -24 5 3 9 -1 9 -9 0 -8 14 -29 30 -47 31 -33 36 -45 23 -53 -5 -2
-2 -2 6 0 14 4 61 -34 61 -49 0 -12 51 -91 69 -105 10 -9 11 -13 3 -13 -10 0
-10 -5 -2 -21 10 -17 14 -18 27 -7 14 11 16 10 11 -9 -3 -12 -3 -23 1 -25 21
-10 85 -184 93 -253 1 -5 10 -23 20 -40 10 -16 26 -47 35 -67 9 -21 20 -38 24
-38 5 0 6 -7 3 -15 -4 -8 -1 -15 5 -15 6 0 11 -9 11 -19 0 -10 7 -21 15 -25 8
-3 14 -9 13 -13 -1 -4 4 -18 11 -31 7 -13 10 -30 7 -39 -5 -11 -2 -13 9 -9 9
3 15 1 14 -7 -3 -23 1 -38 9 -34 4 2 15 -4 25 -15 14 -15 16 -24 3 -15 -2 1
-13 -7 -25 -17 -12 -11 -21 -16 -21 -13 0 4 -25 -7 -55 -24 -30 -16 -55 -28
-55 -25 0 2 -26 -11 -57 -30 -31 -18 -72 -37 -92 -40 -20 -4 -40 -10 -46 -14
-17 -13 -116 -42 -141 -42 -13 0 -24 -4 -24 -9 0 -5 -6 -9 -14 -9 -8 0 -21 -6
-28 -13 -16 -16 -186 -72 -210 -69 -10 1 -18 -3 -18 -9 0 -5 -5 -7 -10 -4 -6
4 -8 12 -4 18 3 7 -2 3 -10 -7 -15 -18 -31 -25 -63 -28 -7 -1 -13 -4 -13 -8 0
-3 -10 -6 -22 -7 -13 -1 -34 -4 -48 -8 -14 -3 -38 -9 -55 -12 -16 -3 -38 -9
-48 -15 -10 -5 -21 -7 -25 -4 -3 3 -16 -1 -29 -9 -17 -12 -23 -12 -23 -3 0 10
-3 10 -9 -1 -5 -7 -13 -11 -19 -7 -6 3 -13 2 -16 -3 -4 -5 -20 -8 -36 -6 -18
3 -28 0 -25 -5 4 -6 -11 -11 -32 -12 -50 -2 -62 -3 -98 -11 -16 -3 -52 -9 -80
-12 -27 -3 -77 -10 -110 -14 -33 -5 -76 -9 -95 -9 -19 0 -91 -6 -160 -12 -162
-16 -749 -8 -760 10 -4 7 -16 9 -28 6 -11 -4 -58 -2 -104 4 -46 6 -101 13
-123 15 -22 3 -58 8 -80 11 -75 13 -104 18 -144 22 -8 1 -11 9 -7 20 6 16 5
16 -8 -1 -13 -17 -32 -25 -22 -9 3 5 -11 7 -30 6 -22 -2 -34 1 -34 10 0 7 -6
13 -12 14 -12 1 -68 9 -111 16 -10 1 -22 8 -27 15 -5 10 -9 10 -15 2 -5 -9
-10 -9 -20 -1 -7 6 -17 10 -21 9 -5 -1 -16 0 -24 4 -20 7 -70 18 -95 20 -11 0
-26 7 -33 14 -7 7 -22 14 -33 14 -10 1 -23 3 -29 4 -5 1 -16 3 -22 4 -9 1 -8
4 2 11 11 8 9 9 -10 5 -28 -7 -102 16 -100 30 0 6 -16 13 -37 17 -52 9 -113
31 -113 41 0 5 -5 5 -10 2 -14 -9 -80 17 -73 28 3 6 2 7 -4 4 -14 -9 -124 31
-149 54 -11 11 -28 19 -37 19 -9 0 -17 5 -17 11 0 6 -8 9 -17 7 -10 -2 -24 3
-31 12 -8 8 -11 9 -7 3 4 -9 1 -11 -10 -7 -9 4 -14 12 -11 19 2 8 -4 11 -17 8
-12 -2 -32 5 -44 16 l-22 19 21 43 c11 24 25 47 30 50 5 3 9 9 9 13 -3 20 0
26 11 20 6 -4 8 -3 5 3 -4 6 2 29 13 51 11 23 20 48 20 57 0 9 5 13 10 10 6
-3 10 1 10 10 0 9 5 13 10 10 6 -3 10 3 10 15 0 12 3 19 8 17 4 -3 8 11 9 31
1 19 8 39 15 43 7 5 10 9 6 9 -4 0 1 20 12 44 10 24 16 46 14 49 -3 2 0 17 7
33 6 16 12 37 15 48 5 28 34 55 51 49 13 -5 13 -3 4 15 -7 12 -8 22 -3 22 6 0
12 9 15 21 4 14 10 18 19 13 7 -4 10 -4 6 1 -11 12 21 67 34 59 6 -4 8 -3 4 4
-3 6 0 16 7 24 7 7 18 26 25 41 6 15 16 26 21 23 5 -3 12 1 15 10 3 8 10 12
16 9 6 -3 7 1 4 9 -3 9 -2 16 3 16 6 0 15 12 21 26 7 14 19 24 30 23 30 -3 34
1 17 18 -15 15 -15 17 -1 25 9 5 16 17 16 27 0 10 12 24 26 31 14 8 35 32 46
55 12 22 29 46 39 53 10 7 16 19 13 27 -4 8 -1 15 5 15 10 0 44 56 39 64 -2 2
4 12 13 22 16 20 38 65 84 174 15 36 33 68 40 72 7 5 11 17 8 28 -4 14 0 20
13 20 9 0 15 3 11 6 -3 4 4 25 15 48 12 22 21 45 20 50 -2 4 4 19 13 32 8 13
13 24 11 24 -3 0 1 12 9 26 7 15 12 35 10 45 -2 11 0 19 5 19 5 0 7 9 5 20 -2
12 2 23 11 27 11 4 12 9 3 19 -6 8 -7 14 -2 14 5 0 10 6 10 13 0 6 21 55 47
108 25 52 46 102 46 110 1 22 86 102 101 94 8 -5 10 -4 5 3 -8 14 53 134 64
127 5 -3 6 4 3 15 -3 11 0 20 6 20 6 0 11 7 11 15 0 21 68 88 80 80 6 -4 9 -1
8 6 -2 7 4 13 12 14 8 0 15 5 15 10 0 18 16 36 26 29 5 -3 8 -2 7 3 -6 17 25
73 43 78 10 4 19 11 19 16 0 6 5 7 12 3 7 -4 8 -3 4 4 -7 11 -1 22 37 63 9 10
15 19 12 19 -3 0 2 11 11 25 9 14 20 22 25 19 5 -3 6 2 3 10 -4 10 -1 16 7 16
7 0 10 3 7 6 -3 3 7 19 23 35 16 16 29 36 29 45 0 14 6 24 38 59 6 7 12 19 12
25 0 6 5 8 12 4 6 -4 9 -3 5 2 -3 5 3 25 14 44 10 19 18 31 19 26 0 -5 7 -3
15 4 8 7 12 17 9 22 -3 5 1 17 9 26 8 9 18 27 21 40 4 12 11 22 15 22 5 0 11
14 15 31 4 19 10 28 17 23 7 -4 10 -1 7 7 -6 15 23 70 53 104 10 11 19 25 19
30 1 6 12 28 23 50 12 22 20 43 19 48 -1 4 3 7 8 7 6 0 10 8 10 18 0 9 7 26
15 36 8 11 15 26 15 34 0 8 8 22 18 31 11 9 22 28 26 43 7 32 43 68 65 68 9 0
26 -3 39 -6z m2362 -3614 c0 -5 -2 -10 -4 -10 -3 0 -8 5 -11 10 -3 6 -1 10 4
10 6 0 11 -4 11 -10z"/>
<path d="M8466 9098 c3 -5 10 -6 15 -3 13 9 11 12 -6 12 -8 0 -12 -4 -9 -9z"/>
<path d="M2190 8791 c0 -5 7 -11 15 -15 8 -3 15 -1 15 3 0 5 -7 11 -15 15 -8
3 -15 1 -15 -3z"/>
<path d="M2575 8260 c3 -5 8 -10 11 -10 2 0 4 5 4 10 0 6 -5 10 -11 10 -5 0
-7 -4 -4 -10z"/>
<path d="M3850 7349 c0 -5 5 -7 10 -4 6 3 10 8 10 11 0 2 -4 4 -10 4 -5 0 -10
-5 -10 -11z"/>
<path d="M4871 5594 c0 -11 3 -14 6 -6 3 7 2 16 -1 19 -3 4 -6 -2 -5 -13z"/>
<path d="M945 3810 c4 -6 11 -8 16 -5 14 9 11 15 -7 15 -8 0 -12 -5 -9 -10z"/>
<path d="M1290 3040 c-9 -6 -10 -10 -3 -10 6 0 15 5 18 10 8 12 4 12 -15 0z"/>
<path d="M1870 2179 c0 -5 5 -7 10 -4 6 3 10 8 10 11 0 2 -4 4 -10 4 -5 0 -10
-5 -10 -11z"/>
<path d="M2170 1880 c-9 -6 -10 -10 -3 -10 6 0 15 5 18 10 8 12 4 12 -15 0z"/>
<path d="M2750 1440 c-9 -6 -10 -10 -3 -10 6 0 15 5 18 10 8 12 4 12 -15 0z"/>
<path d="M6595 2990 c-3 -5 -2 -10 4 -10 5 0 13 5 16 10 3 6 2 10 -4 10 -5 0
-13 -4 -16 -10z"/>
<path d="M6830 2400 c0 -5 5 -10 11 -10 5 0 7 5 4 10 -3 6 -8 10 -11 10 -2 0
-4 -4 -4 -10z"/>
<path d="M7220 1816 c0 -2 7 -9 15 -16 13 -11 14 -10 9 4 -5 14 -24 23 -24 12z"/>
<path d="M2435 9160 c-19 -8 -19 -9 3 -9 12 -1 22 4 22 9 0 6 -1 10 -2 9 -2 0
-12 -4 -23 -9z"/>
<path d="M8540 9126 c0 -2 7 -7 16 -10 8 -3 12 -2 9 4 -6 10 -25 14 -25 6z"/>
<path d="M9190 8510 c0 -5 5 -10 11 -10 5 0 7 5 4 10 -3 6 -8 10 -11 10 -2 0
-4 -4 -4 -10z"/>
<path d="M9517 8014 c-8 -8 44 -95 53 -89 5 3 11 1 14 -4 4 -5 2 -12 -3 -15
-5 -3 -7 -16 -3 -28 5 -20 6 -20 12 -3 5 15 10 13 30 -19 19 -32 21 -40 9 -48
-11 -8 -11 -9 2 -5 12 4 24 -8 43 -44 15 -27 24 -54 20 -61 -5 -7 -3 -8 6 -3
9 6 10 2 5 -16 -7 -21 -6 -22 7 -11 13 10 17 10 22 -4 3 -9 3 -21 -1 -26 -3
-6 -1 -8 4 -5 11 7 21 -12 63 -110 12 -29 27 -53 33 -53 6 0 8 -3 4 -6 -6 -7
20 -65 33 -74 7 -5 45 -80 45 -90 0 -3 15 -40 33 -83 18 -43 30 -82 27 -87 -3
-6 -2 -10 4 -10 5 0 15 -15 21 -34 6 -19 15 -36 19 -38 7 -3 81 -234 117 -368
10 -36 22 -68 28 -72 6 -4 11 -17 12 -30 2 -37 16 -88 25 -94 5 -3 7 -10 4
-15 -4 -5 -3 -15 2 -21 4 -7 9 -29 10 -48 2 -19 4 -41 5 -47 2 -18 25 -16 25
2 0 8 -4 15 -9 15 -5 0 -6 11 -4 25 3 14 1 25 -4 25 -4 0 -7 8 -6 17 2 9 -3
36 -10 59 -7 23 -10 45 -7 48 4 3 1 6 -4 6 -6 0 -10 8 -8 18 1 9 -2 23 -8 30
-5 6 -6 12 -2 12 4 0 3 6 -3 13 -5 6 -11 26 -13 42 -2 17 -9 37 -15 45 -15 19
-35 90 -28 102 3 4 0 8 -5 8 -6 0 -11 8 -11 19 0 10 -9 40 -19 67 -10 27 -28
79 -39 115 -12 36 -42 111 -68 165 -26 55 -49 110 -51 124 -3 14 -8 27 -14 28
-5 2 -9 12 -9 23 0 10 -5 19 -12 19 -6 0 -8 3 -5 7 4 3 0 15 -10 25 -9 10 -13
18 -8 18 4 0 -4 15 -17 33 -13 17 -30 48 -38 67 -18 47 -99 201 -115 220 -18
21 -50 83 -47 93 1 4 -2 7 -8 7 -5 0 -10 9 -10 20 0 12 -12 32 -26 45 -15 14
-23 25 -18 25 5 0 2 5 -6 10 -13 9 -13 11 0 20 12 7 8 11 -17 16 -18 4 -31 10
-28 14 5 9 -20 21 -28 14z"/>
<path d="M1100 7520 c0 -5 5 -10 10 -10 6 0 10 5 10 10 0 6 -4 10 -10 10 -5 0
-10 -4 -10 -10z"/>
<path d="M6815 7200 c3 -5 8 -10 11 -10 2 0 4 5 4 10 0 6 -5 10 -11 10 -5 0
-7 -4 -4 -10z"/>
<path d="M10016 7183 c-6 -14 -5 -15 5 -6 7 7 10 15 7 18 -3 3 -9 -2 -12 -12z"/>
<path d="M10234 6318 c1 -7 4 -17 7 -23 3 -5 5 -27 5 -47 -1 -26 3 -38 12 -38
9 0 11 12 7 44 -2 24 -8 51 -11 60 -7 19 -23 22 -20 4z"/>
<path d="M10260 6180 c6 -11 13 -20 15 -20 3 0 5 9 5 20 0 11 -7 20 -15 20
-13 0 -14 -4 -5 -20z"/>
<path d="M10263 6131 c-1 -11 5 -22 13 -25 11 -4 15 0 12 16 -4 27 -23 34 -25
9z"/>
<path d="M10279 6087 c-5 -15 -3 -57 4 -57 5 0 8 -12 6 -27 -1 -16 1 -35 4
-43 3 -8 6 -31 7 -50 2 -78 9 -132 18 -143 6 -7 15 -110 21 -229 12 -239 -1
-642 -22 -666 -6 -7 -10 -33 -8 -58 1 -24 -2 -44 -6 -44 -4 0 -9 -19 -9 -43
-3 -86 -7 -137 -13 -137 -3 0 -7 -12 -8 -27 -3 -51 -11 -108 -18 -133 -4 -14
-7 -32 -7 -40 0 -8 -2 -22 -5 -30 -3 -8 -7 -26 -9 -40 -6 -41 -9 -54 -17 -67
-5 -7 -5 -17 -2 -23 3 -5 3 -16 -2 -22 -4 -7 -8 -20 -8 -28 0 -8 -4 -21 -8
-27 -5 -7 -6 -13 -3 -13 2 0 0 -15 -5 -32 -6 -18 -12 -41 -14 -52 -2 -10 -9
-24 -15 -31 -6 -7 -10 -17 -9 -21 1 -5 -3 -22 -9 -37 -7 -15 -11 -31 -11 -35
1 -4 0 -10 -1 -14 -1 -5 -3 -11 -4 -15 -10 -45 -102 -310 -121 -350 -14 -28
-25 -57 -25 -62 0 -6 -4 -11 -8 -11 -5 0 -9 -6 -9 -13 0 -21 -47 -137 -56
-137 -5 0 -5 5 -2 10 3 6 1 10 -4 10 -14 0 -14 -17 -1 -25 11 -7 -6 -51 -30
-77 -32 -36 -39 -46 -33 -52 4 -3 -2 -15 -12 -26 -9 -10 -15 -26 -12 -35 4 -9
1 -15 -9 -15 -11 0 -13 -6 -9 -20 3 -11 2 -20 -3 -20 -5 0 -15 -14 -22 -31 -8
-18 -16 -26 -20 -19 -4 6 -7 -3 -7 -21 0 -18 -6 -35 -15 -40 -9 -5 -19 -20
-22 -34 -4 -14 -11 -23 -17 -20 -5 4 -9 3 -8 -2 1 -4 -5 -24 -14 -43 -14 -30
-23 -33 -18 -7 1 5 -3 6 -9 2 -7 -4 -7 -12 0 -26 8 -13 7 -19 0 -19 -6 0 -9
-4 -6 -9 5 -8 -20 -46 -51 -79 -6 -6 -15 -21 -18 -33 -5 -14 -12 -18 -23 -14
-14 5 -14 4 -5 -6 10 -10 9 -16 -4 -31 -9 -10 -12 -18 -7 -19 5 0 0 -4 -11 -8
-19 -8 -19 -8 1 -19 17 -9 20 -7 21 10 3 31 19 44 38 28 13 -11 15 -10 10 2
-8 21 22 91 35 83 6 -4 9 -3 8 2 -4 14 13 53 23 53 5 0 8 3 7 8 -3 18 35 85
52 89 11 3 17 9 14 14 -3 5 2 21 10 36 9 16 25 49 36 76 11 26 26 50 34 53 8
3 13 11 10 19 -3 7 2 20 11 29 9 9 14 16 11 16 -3 0 2 9 12 20 9 12 17 24 18
28 0 4 11 30 24 57 13 28 24 53 25 58 2 4 4 9 5 12 1 3 3 8 4 13 1 4 14 30 29
59 15 29 27 61 27 72 0 11 6 26 14 33 7 8 24 43 36 79 12 35 26 73 30 84 5 11
14 38 20 60 6 22 14 47 17 55 3 8 7 21 9 28 1 8 6 21 10 30 4 9 9 28 11 42 2
13 8 30 14 36 5 6 6 14 2 18 -4 4 -1 11 7 16 7 5 15 16 17 24 5 28 11 51 13
51 3 0 10 49 11 68 0 9 4 17 9 17 4 0 7 8 5 18 -1 9 0 22 4 27 6 11 7 14 15
58 4 15 9 39 12 55 3 15 7 36 9 47 2 11 7 34 11 50 3 17 8 41 9 55 2 14 4 25
5 25 3 0 9 37 14 89 3 26 10 53 15 60 11 14 35 210 28 236 -3 10 -1 20 3 22
14 5 27 356 23 598 -2 124 -10 295 -18 380 -9 85 -18 183 -22 217 -3 38 -11
64 -19 67 -8 3 -14 4 -15 3z"/>
<path d="M7005 3280 c-3 -5 -1 -10 4 -10 6 0 11 5 11 10 0 6 -2 10 -4 10 -3 0
-8 -4 -11 -10z"/>
<path d="M9935 3249 c-4 -6 -5 -12 -2 -15 2 -3 7 2 10 11 7 17 1 20 -8 4z"/>
<path d="M9800 3199 c0 -5 5 -7 10 -4 6 3 10 8 10 11 0 2 -4 4 -10 4 -5 0 -10
-5 -10 -11z"/>
<path d="M9568 2783 c7 -3 16 -2 19 1 4 3 -2 6 -13 5 -11 0 -14 -3 -6 -6z"/>
<path d="M1316 2713 c-6 -14 -5 -15 5 -6 7 7 10 15 7 18 -3 3 -9 -2 -12 -12z"/>
<path d="M1345 2700 c3 -5 8 -10 11 -10 2 0 4 5 4 10 0 6 -5 10 -11 10 -5 0
-7 -4 -4 -10z"/>
<path d="M9483 2455 c0 -8 4 -12 9 -9 4 3 8 9 8 15 0 5 -4 9 -8 9 -5 0 -9 -7
-9 -15z"/>
<path d="M9399 2383 c-13 -16 -12 -17 4 -4 16 13 21 21 13 21 -2 0 -10 -8 -17
-17z"/>
<path d="M9086 2148 c3 -5 10 -6 15 -3 13 9 11 12 -6 12 -8 0 -12 -4 -9 -9z"/>
<path d="M9184 2098 c-4 -7 -4 -10 1 -6 4 4 15 2 24 -5 14 -11 14 -10 2 6 -16
20 -18 21 -27 5z"/>
<path d="M1835 2000 c4 -6 11 -8 16 -5 14 9 11 15 -7 15 -8 0 -12 -5 -9 -10z"/>
<path d="M9055 1990 c-3 -5 -1 -18 4 -27 9 -15 10 -14 9 10 -3 30 -4 32 -13
17z"/>
<path d="M8920 1960 c0 -5 5 -10 10 -10 6 0 10 5 10 10 0 6 -4 10 -10 10 -5 0
-10 -4 -10 -10z"/>
<path d="M1925 1950 c-3 -5 1 -10 10 -10 9 0 13 5 10 10 -3 6 -8 10 -10 10 -2
0 -7 -4 -10 -10z"/>
<path d="M7525 1880 c-3 -6 1 -7 9 -4 18 7 21 14 7 14 -6 0 -13 -4 -16 -10z"/>
<path d="M8814 1878 c-5 -7 -2 -9 9 -5 9 3 18 1 21 -6 2 -7 5 -4 5 6 1 19 -24
23 -35 5z"/>
<path d="M8870 1790 c0 -5 5 -10 11 -10 5 0 7 5 4 10 -3 6 -8 10 -11 10 -2 0
-4 -4 -4 -10z"/>
<path d="M8630 1671 c0 -5 5 -13 10 -16 6 -3 10 -2 10 4 0 5 -4 13 -10 16 -5
3 -10 2 -10 -4z"/>
<path d="M8767 1667 c-3 -8 1 -14 9 -14 16 0 19 13 5 21 -5 3 -11 0 -14 -7z"/>
<path d="M8330 1340 c0 -5 5 -10 11 -10 5 0 7 5 4 10 -3 6 -8 10 -11 10 -2 0
-4 -4 -4 -10z"/>
<path d="M8013 1235 c-3 -9 -3 -18 -1 -21 3 -3 8 4 11 16 6 23 -1 27 -10 5z"/>
<path d="M8170 1239 c0 -5 5 -7 10 -4 6 3 10 8 10 11 0 2 -4 4 -10 4 -5 0 -10
-5 -10 -11z"/>
</g>
</svg>
